# xmcd
#
# Track frame offsets: 
#        150
#        15778
#        29777
#        42961
#        60038
#        74803
#        92089
#        106558
#        120946
#        136762
#        150592
#        163835
#        174709
#        187667
#        201948
#        213010
#        228338
#        237796
#        250316
#        261995
#
# Disc length: 3549 seconds
#
# Revision: 0
# Processed by: cddbd v1.5.2PL0 Copyright (c) Steve Scherf et al.
# Submitted via: ExactAudioCopyFreeDBPlugin 1.0
#
DISCID=fd0ddb14
DTITLE=Pierre Perret - Les petites treizièmes
DYEAR=2011
DGENRE=Variétét française
TTITLE0=Le Tord-boyaux (version 45T)
TTITLE1=Marina (version 45T)
TTITLE2=Les filles du midi (inédit)
TTITLE3=Blanche (version 45T)
TTITLE4=Histoire de cons (inédit)
TTITLE5=La feignasse (inédit)
TTITLE6=Elphe (inédit en CD)
TTITLE7=Anna
TTITLE8=Lætitia
TTITLE9=Le centenaire
TTITLE10=Nos amies les bêtes
TTITLE11=La bande à BD (inédit en CD)
TTITLE12=Jésus dollars (inédit)
TTITLE13=La cage aux oiseaux (version 1999)
TTITLE14=Les petits animaux sauvages
TTITLE15=Marie le lundi (inédit)
TTITLE16=Le juge Roy Bean (inédit en CD)
TTITLE17=Prenez une bouffée d'air pur (inédit en CD)
TTITLE18=On sème la zizanie
TTITLE19=Archibald le maréchal (inédit en CD)
EXTD=Intégrale 1957 - 2011
EXTT0=
EXTT1=
EXTT2=
EXTT3=
EXTT4=
EXTT5=
EXTT6=
EXTT7=
EXTT8=
EXTT9=
EXTT10=
EXTT11=
EXTT12=
EXTT13=
EXTT14=
EXTT15=
EXTT16=
EXTT17=
EXTT18=
EXTT19=
PLAYORDER=
